<svg width="25" height="25" viewBox="0 0 6.615 6.615" xmlns="http://www.w3.org/2000/svg"><path style="fill:#000;stroke-width:3.74031" d="M0 0v7h7V0Zm1 1h5v5H1Zm1 1v3h3V2Z" transform="scale(.26458)"/><path style="fill:#000;stroke-width:.989624" d="M4.762 0v1.852h1.853V0Zm.265.265H6.35v1.322H5.027Zm.265.264v.794h.793V.529ZM0 4.763v1.852h1.852V4.763Zm.265.264h1.322V6.35H.265Zm.264.265v.793h.794v-.793Z"/><path style="fill:#000;stroke-width:.999999" d="M16 1v1h-2v1h2v5h-1V6h-1v2h-1V6h-1v3h2v4h1v1h-1v-1h-2v1h1v.986h2.982V14H17v-1h-1V9h1V1h-1zM9 15v2H8v3h3v1h3v4h1v-1h1v1h2v-2h-3v-2h1v1h3v2h2v-1h-1v-2h1v1h1v-1h1v-1h-2v-1h1v-1h-1v-3h-7v1h-1v-1h-1v2h4v2h-1v1h-3v-1h-2v-1h1v-1h-1v-2H9zm8 2h3v3h-3v-3zm1 1v.979h.924V18H18z" transform="scale(.26458)"/><path style="fill:#000;stroke-width:.999999" d="M9 0v1h2v1H9v1h1v2H9v1h1v1h1V4h1V2h2V1h1V0h-2v1h-1V0H9z" transform="scale(.26458)"/><path style="fill:#000;stroke-width:.264583" d="M2.117.794h.265v.529h-.265zM2.117 1.587h.265v.265h-.265z"/><path style="fill:#000;stroke-width:.999999" d="M13 3v1h-1v1h1v1h1V3h-1z" transform="scale(.26458)"/><path style="fill:#000;stroke-width:.264583" d="M4.498 2.646h.265v.265h-.265z"/><path style="fill:#000;stroke-width:.999999" d="M18 11v2h1v1h1v-2h-1v-1h-1zM20 8v1h-1v2h1v-1h1v2h1v-2h1v1h1v2h1v-3h-1V9h-2V8h-2zM23 13v2h1v1h1v-2h-1v-1h-1z" transform="scale(.26458)"/><path style="fill:#000;stroke-width:.264583" d="M5.556 3.704h.265v.265h-.265zM5.821 3.969h.265v.794h-.265zM6.35 4.762h.265v.529H6.35z"/><path style="fill:#000;stroke-width:.999999" d="M23 21v1h1v3h1v-4h-2z" transform="scale(.26458)"/><path style="fill:#000;stroke-width:.264583" d="M5.821 5.821h.265v.265h-.265zM5.556 6.35h.265v.265h-.265zM3.175 5.556h.265v.265h-.265zM3.175 4.762h.529v.265h-.529zM.794 4.233h1.323v.265H.794z"/><path style="fill:#000;stroke-width:.999999" d="M1 14v2.846h1.037V16H3v-2H1z" transform="scale(.26458)"/><path style="fill:#000;stroke-width:.264583" d="M.794 3.44h.529v.265H.794z"/><path style="fill:#000;stroke-width:.999999" d="M11 10v1h-1v1H8v1H7v1H5v1h4v-1h2v-2h1v-1h1v-1h-2z" transform="scale(.26458)"/><path style="fill:#000;stroke-width:.264583" d="M1.587 3.175h.265v.265h-.265zM2.381 2.646h.265v.265h-.265z"/><path style="fill:#000;stroke-width:.999999" d="M9 7v2h1v1h1V8h-1V7H9z" transform="scale(.26458)"/><path style="fill:#000;stroke-width:.264583" d="M2.117 2.381h.265v.265h-.265zM1.323 2.117h.794v.265h-.794zM1.058 2.381h.265v.265h-.265zM1.587 2.646h.529v.265h-.529z"/><path style="fill:#000;stroke-width:.264583" d="M1.323 2.91h.265v.265h-.265z"/><path style="fill:#000;stroke-width:.999999" d="M2 10v1H0v2h2v-1h2v-2H2z" transform="scale(.26458)"/><path style="fill:#000;stroke-width:.264583" d="M0 2.117h.265v.529H0zM.265 2.117H.53v.265H.265zM2.646 5.821h.265v.265h-.265z"/><path style="fill:#000;stroke-width:.264583" d="M2.117 6.085h1.058v.265H2.117zM2.117 6.35h.265v.265h-.265zM3.175 6.35h.265v.265h-.265z"/></svg>