<svg version="1.1" id="Ebene_1" xmlns="http://www.w3.org/2000/svg" x="0" y="0" viewBox="0 0 355 91" style="enable-background:new 0 0 355 91" xml:space="preserve"><style>.st0{fill:none;stroke:#2580c3;stroke-width:4.0034;stroke-linecap:round;stroke-linejoin:round;stroke-miterlimit:10}</style><path d="M8.2 0C7.5 0 7-.2 6.6-.6 6.2-1 6-1.6 6-2.3v-41.5c0-.7.2-1.2.6-1.7.4-.4 1-.6 1.7-.6s1.2.2 1.7.6c.4.4.6 1 .6 1.7v41.5c0 .7-.2 1.2-.6 1.7-.6.4-1.1.6-1.8.6zM33.7 0c-.6 0-1.2-.2-1.7-.6-.4-.5-.6-1-.6-1.7v-43.8H36v43.8c0 .6-.2 1.2-.6 1.7-.5.4-1 .6-1.7.6zM17.4-41.9c-.6 0-1.1-.2-1.5-.6-.4-.4-.6-.9-.6-1.5s.2-1.1.6-1.5c.4-.4.9-.6 1.5-.6h32.7c.6 0 1.1.2 1.5.6.4.4.6.9.6 1.5s-.2 1.1-.6 1.5c-.4.4-.9.6-1.5.6H17.4zM62.2.3c-3.1 0-6-.7-8.4-2.1-2.5-1.4-4.4-3.4-5.8-5.8s-2.1-5.3-2.1-8.4c0-3.2.7-6 2.1-8.5s3.4-4.4 5.8-5.8c2.5-1.4 5.3-2.1 8.4-2.1 3.1 0 5.9.7 8.4 2.1 2.5 1.4 4.4 3.4 5.8 5.8 1.4 2.5 2.1 5.3 2.2 8.5 0 3.1-.7 6-2.2 8.4C75-5.1 73-3.2 70.6-1.8 68.2-.4 65.4.3 62.2.3zm0-4.1c2.3 0 4.3-.5 6.1-1.6 1.8-1.1 3.2-2.5 4.3-4.4s1.5-4 1.5-6.3-.5-4.5-1.5-6.3c-1-1.9-2.4-3.4-4.3-4.4-1.8-1.1-3.9-1.6-6.1-1.6-2.3 0-4.3.5-6.1 1.6-1.8 1.1-3.2 2.5-4.3 4.4-1 1.9-1.5 4-1.5 6.3 0 2.4.5 4.5 1.5 6.3 1.1 1.8 2.5 3.3 4.3 4.4s3.9 1.6 6.1 1.6zM113.2 0c-.7 0-1.2-.2-1.7-.6-.4-.4-.6-1-.6-1.6v-15.4c0-2.4-.5-4.4-1.4-6-.9-1.6-2.2-2.8-3.8-3.5-1.6-.8-3.4-1.2-5.4-1.2-1.9 0-3.7.4-5.3 1.1-1.5.7-2.8 1.8-3.7 3.1-.9 1.3-1.4 2.8-1.4 4.4h-3.2c.1-2.5.7-4.7 2-6.6 1.3-2 2.9-3.5 5-4.6 2.1-1.1 4.4-1.7 7-1.7 2.8 0 5.3.6 7.5 1.8 2.2 1.1 3.9 2.8 5.2 5.1 1.3 2.2 1.9 5 1.9 8.2v15.4c0 .6-.2 1.2-.6 1.6-.3.3-.9.5-1.5.5zM87.8 0c-.7 0-1.3-.2-1.7-.6-.4-.4-.6-1-.6-1.7V-30c0-.7.2-1.3.6-1.7.4-.4 1-.6 1.7-.6s1.2.2 1.6.6c.4.4.6.9.6 1.7v27.8c0 .7-.2 1.2-.6 1.7-.4.3-.9.5-1.6.5zM139.8.3c-3.1 0-5.8-.7-8.3-2.1-2.4-1.4-4.4-3.3-5.8-5.8-1.4-2.5-2.1-5.3-2.2-8.3v-27.9c0-.7.2-1.3.6-1.7.4-.4 1-.6 1.7-.6s1.2.2 1.6.6c.4.4.6.9.6 1.7v17.4c1.3-1.9 3-3.3 5.1-4.4 2.2-1.1 4.6-1.7 7.2-1.7 3 0 5.7.7 8.1 2.2 2.4 1.4 4.3 3.4 5.7 5.8 1.4 2.5 2.1 5.3 2.1 8.4 0 3.1-.7 6-2.2 8.4-1.4 2.5-3.4 4.4-5.8 5.9-2.4 1.4-5.2 2.1-8.4 2.1zm0-4.1c2.3 0 4.3-.5 6.1-1.6 1.8-1.1 3.2-2.6 4.3-4.4 1.1-1.9 1.6-4 1.6-6.3s-.5-4.4-1.6-6.3c-1-1.9-2.4-3.4-4.3-4.4-1.8-1.1-3.9-1.6-6.1-1.6-2.2 0-4.3.5-6.1 1.6s-3.2 2.5-4.3 4.4c-1 1.9-1.5 3.9-1.5 6.3s.5 4.5 1.5 6.3c1 1.9 2.4 3.3 4.3 4.4 1.9 1 3.9 1.6 6.1 1.6zM177.9.3c-3.1 0-6-.7-8.4-2.1s-4.4-3.4-5.8-5.8-2.1-5.3-2.1-8.4c0-3.2.7-6 2.1-8.5s3.4-4.4 5.8-5.8 5.3-2.1 8.4-2.1 5.9.7 8.4 2.1c2.5 1.4 4.4 3.4 5.8 5.8 1.4 2.5 2.1 5.3 2.2 8.5 0 3.1-.7 6-2.2 8.4-1.4 2.5-3.4 4.4-5.8 5.8-2.4 1.4-5.2 2.1-8.4 2.1zm0-4.1c2.3 0 4.3-.5 6.1-1.6 1.8-1.1 3.2-2.5 4.3-4.4 1-1.9 1.5-4 1.5-6.3s-.5-4.5-1.5-6.3c-1-1.9-2.4-3.4-4.3-4.4-1.8-1.1-3.9-1.6-6.1-1.6-2.3 0-4.3.5-6.1 1.6-1.8 1.1-3.2 2.5-4.3 4.4-1 1.9-1.5 4-1.5 6.3s.5 4.5 1.5 6.3c1.1 1.8 2.5 3.3 4.3 4.4s3.8 1.6 6.1 1.6zM215.4.3c-3 0-5.7-.7-8.1-2.1-2.4-1.5-4.3-3.4-5.7-5.9-1.4-2.5-2.1-5.3-2.1-8.4 0-3.1.7-6 2.1-8.4 1.5-2.5 3.4-4.4 5.9-5.8 2.5-1.5 5.3-2.2 8.4-2.2 3.1 0 5.9.7 8.3 2.2 2.5 1.4 4.4 3.4 5.8 5.8 1.5 2.5 2.2 5.3 2.2 8.4l-1.8 1.4c0 2.8-.7 5.4-2 7.7-1.3 2.2-3.1 4-5.4 5.4-2.1 1.2-4.7 1.9-7.6 1.9zm.5-4.1c2.3 0 4.3-.5 6.1-1.6 1.8-1.1 3.2-2.5 4.3-4.4 1.1-1.9 1.6-4 1.6-6.3 0-2.4-.5-4.5-1.6-6.3-1-1.9-2.4-3.3-4.3-4.4-1.8-1.1-3.8-1.7-6.1-1.7-2.2 0-4.3.6-6.1 1.7-1.8 1.1-3.2 2.5-4.3 4.4-1.1 1.9-1.6 4-1.6 6.3s.5 4.4 1.6 6.3c1.1 1.8 2.5 3.3 4.3 4.4 1.8 1 3.9 1.6 6.1 1.6zM230 0c-.7 0-1.2-.2-1.7-.6-.4-.4-.6-1-.6-1.7v-10.1l1.1-4.7 3.5.9v13.9c0 .7-.2 1.2-.6 1.7-.5.4-1 .6-1.7.6zM241.1-19.9c.1-2.4.7-4.6 1.9-6.6 1.2-1.9 2.7-3.4 4.5-4.5 1.9-1.1 4-1.7 6.3-1.7 1.8 0 3.2.3 4.2.8s1.4 1.3 1.1 2.2c-.2.6-.4 1-.8 1.2-.4.2-.8.3-1.4.2-.5 0-1.1-.1-1.8-.1-2.2-.2-4.2 0-5.9.7-1.7.6-3.1 1.6-4.1 3-1 1.3-1.5 2.9-1.5 4.8h-2.5zm.3 19.9c-.7 0-1.3-.2-1.7-.6-.4-.4-.6-.9-.6-1.7v-27.8c0-.7.2-1.3.6-1.7.4-.4.9-.6 1.7-.6.7 0 1.3.2 1.7.6.4.4.6.9.6 1.7v27.8c0 .7-.2 1.3-.6 1.7-.4.4-1 .6-1.7.6zM276.5.3c-3.1 0-5.9-.7-8.4-2.1-2.5-1.5-4.4-3.4-5.9-5.9-1.4-2.5-2.1-5.3-2.1-8.4 0-3.1.7-5.9 2.1-8.4 1.4-2.5 3.3-4.4 5.7-5.8 2.4-1.5 5.1-2.2 8.1-2.2 2.6 0 5 .6 7.1 1.7 2.1 1.1 3.8 2.6 5.1 4.4v-17.4c0-.7.2-1.3.6-1.7.4-.4 1-.6 1.7-.6s1.2.2 1.7.6c.4.4.6.9.6 1.7v27.9c-.1 3.1-.8 5.8-2.3 8.3-1.4 2.4-3.4 4.4-5.8 5.8-2.3 1.4-5.1 2.1-8.2 2.1zm0-4.1c2.3 0 4.3-.5 6.1-1.6 1.8-1.1 3.2-2.6 4.3-4.4 1.1-1.9 1.6-4 1.6-6.3s-.5-4.4-1.6-6.3c-1-1.9-2.4-3.4-4.3-4.4-1.8-1.1-3.8-1.6-6.1-1.6-2.2 0-4.3.5-6.1 1.6s-3.2 2.5-4.3 4.4c-1.1 1.9-1.6 3.9-1.6 6.3s.5 4.5 1.6 6.3c1.1 1.9 2.5 3.3 4.3 4.4 1.9 1 3.9 1.6 6.1 1.6z" transform="translate(55.825 67.247)"/><path class="st0" d="m7.5 65.4 42-41.8"/><path d="M37.5 67.4c-.5 0-1-.2-1.4-.6-.8-.8-.8-2 0-2.8l7.8-7.9c.8-.8 2-.8 2.8 0 .8.8.8 2 0 2.8l-7.8 7.9c-.4.4-.9.6-1.4.6z" style="fill:#a1b91c"/><path d="M22.9 66.8c-.5 0-1-.2-1.4-.6-.8-.8-.8-2 0-2.8l21.8-21.9c.8-.8 2-.8 2.8 0 .8.8.8 2 0 2.8L24.3 66.2c-.4.4-.9.6-1.4.6z" style="fill:#e95a0c"/><path class="st0" d="M49.5 23.6v8"/><path d="M7.4 37.7c-.5 0-1-.2-1.4-.6-.8-.8-.8-2 0-2.8l7.9-7.9c.8-.8 2-.8 2.8 0 .8.8.8 2 0 2.8l-7.9 7.9c-.4.4-.9.6-1.4.6z" style="fill:#b8256a"/><path d="M8.2 52.1c-.5 0-1-.2-1.4-.6-.8-.8-.8-2.1 0-2.8l21.9-21.8c.8-.8 2.1-.8 2.8 0 .8.8.8 2.1 0 2.8L9.6 51.5c-.4.4-.9.6-1.4.6z" style="fill:#ffcb00"/><path class="st0" d="M49.5 23.6h-8"/></svg>