<svg version="1.1" id="Ebene_1" x="0" y="0" xml:space="preserve" width="46.102" height="46.102" xmlns="http://www.w3.org/2000/svg"><style type="text/css" id="style2">.st0{fill:none;stroke:#2580c3;stroke-width:4.0034;stroke-linecap:round;stroke-linejoin:round;stroke-miterlimit:10}</style><path class="st0" id="line24" d="m2.1 43.951 42-41.8"/><path d="M32.1 45.95c-.5 0-1-.2-1.4-.6-.8-.8-.8-2 0-2.8l7.8-7.9c.8-.8 2-.8 2.8 0 .8.8.8 2 0 2.8l-7.8 7.9c-.4.4-.9.6-1.4.6z" id="path26" style="fill:#a1b91c"/><path d="M17.5 45.35c-.5 0-1-.2-1.4-.6-.8-.8-.8-2 0-2.8l21.8-21.9c.8-.8 2-.8 2.8 0 .8.8.8 2 0 2.8l-21.8 21.9c-.4.4-.9.6-1.4.6z" id="path28" style="fill:#e95a0c"/><path class="st0" id="line30" d="M44.1 2.151v8"/><path d="M2 16.25c-.5 0-1-.2-1.4-.6-.8-.8-.8-2 0-2.8l7.9-7.9c.8-.8 2-.8 2.8 0 .8.8.8 2 0 2.8l-7.9 7.9c-.4.4-.9.6-1.4.6z" id="path32" style="fill:#b8256a"/><path d="M2.8 30.65c-.5 0-1-.2-1.4-.6-.8-.8-.8-2.1 0-2.8l21.9-21.8c.8-.8 2.1-.8 2.8 0 .8.8.8 2.1 0 2.8L4.2 30.05c-.4.4-.9.6-1.4.6z" id="path34" style="fill:#ffcb00"/><path class="st0" id="line36" d="M44.1 2.151h-8"/></svg>